<svg id="Layer_1" data-name="Layer 1" xmlns="http://www.w3.org/2000/svg" viewBox="0 0 275.9 69.06"><defs><style>.cls-1{fill:#fefefe;}.cls-2{fill:#0073b0;}.cls-3{fill:#0073b1;}.cls-4{fill:#fff;}.cls-5{fill:#aad0e5;}.cls-6{fill:#aad0e4;}.cls-7{fill:#7eb8d7;}.cls-8{fill:#3f96c3;}.cls-9{fill:#d6e6f1;}.cls-10{fill:#cfe5f0;}.cls-11{fill:#c5dfed;}.cls-12{fill:#99c7df;}.cls-13{fill:#daebf4;}.cls-14{fill:#d1e8f2;}.cls-15{fill:#d0e6f1;}</style></defs><title>linkedin</title><path class="cls-1" d="M279.71,255.38H69q0-5,0-9.93a1.44,1.44,0,0,1,1-.18H97.64c.81,0,.85,0,.86-.83q0-3.92,0-7.83c0-.75,0-.79-.83-.79H80.19c-1.43,0-1.43,0-1.43-1.43q0-18.45,0-36.9c0-1.16,0-1.16-1.19-1.16H69.9a1.26,1.26,0,0,1-.9-.18v-9.82H280.15a.15.15,0,0,1,0,.19,1.43,1.43,0,0,1-.6.27,5.1,5.1,0,0,0-3.41,4.72q.06,29.42,0,58.83a5.73,5.73,0,0,0,.54,2.56,3.7,3.7,0,0,0,2.35,2,1.55,1.55,0,0,1,.65.28A.15.15,0,0,1,279.71,255.38Z" transform="translate(-69 -186.32)"/><path class="cls-2" d="M279.7,255.28c-.23-.06-.47-.1-.7-.17a4.25,4.25,0,0,1-2.94-3.41,6.66,6.66,0,0,1-.13-1.53q0-29.34,0-58.68a5.15,5.15,0,0,1,3.79-5l.43-.12a.32.32,0,0,1,.21,0c.12,0,.24,0,.35-.06h59.46c.11.1.24,0,.35.06H341a4.59,4.59,0,0,1,3.86,4.32c0,.13,0,.26,0,.39q0,29.69,0,59.39c0,.1,0,.19,0,.29a3.81,3.81,0,0,1-1.58,3,5.62,5.62,0,0,1-3.62,1.51H280A.61.61,0,0,1,279.7,255.28Z" transform="translate(-69 -186.32)"/><path class="cls-3" d="M69,196.14a1.45,1.45,0,0,0,.6,0h9c.21,0,.3.09.29.3s0,.33,0,.5q0,19,0,37.94c0,.75-.1.68.67.68H98c.76,0,.67-.06.67.68q0,4.25,0,8.49c0,.77.05.67-.69.67H69Z" transform="translate(-69 -186.32)"/><path class="cls-4" d="M339.72,255.27a10.21,10.21,0,0,0,1.59-.43,6.09,6.09,0,0,0,2.88-2.3,3.58,3.58,0,0,0,.62-1.68q0-.08.09,0v4.52h-5.18s0,0,0-.07S339.71,255.27,339.72,255.27Z" transform="translate(-69 -186.32)"/><path class="cls-5" d="M344.81,250.64c0-.16,0-.33,0-.49q0-29.35,0-58.7c0-.16,0-.33,0-.49a.05.05,0,0,1,.09,0v59.68A.05.05,0,0,1,344.81,250.64Z" transform="translate(-69 -186.32)"/><path class="cls-6" d="M279.92,255.28h59.47s0,0,0,.07,0,0,0,0H279.93s0,0,0-.07S279.91,255.28,279.92,255.28Z" transform="translate(-69 -186.32)"/><path class="cls-4" d="M344.81,190.62a4.82,4.82,0,0,0-3.4-4.05l-.47-.14s0,0,0-.07,0,0,0,0h4v4.3Q344.85,190.7,344.81,190.62Z" transform="translate(-69 -186.32)"/><path class="cls-7" d="M280.7,186.32a.32.32,0,0,1-.34.1s0,0,0-.07l0,0Z" transform="translate(-69 -186.32)"/><path class="cls-8" d="M340.5,186.42c-.13,0-.26,0-.34-.1h.33s0,0,0,.06S340.51,186.42,340.5,186.42Z" transform="translate(-69 -186.32)"/><path class="cls-9" d="M344.81,190.62h.09V191h-.09Q344.81,190.79,344.81,190.62Z" transform="translate(-69 -186.32)"/><path class="cls-10" d="M339.39,255.38s0-.06,0-.1h.33s0,.07,0,.11Z" transform="translate(-69 -186.32)"/><path class="cls-11" d="M280.37,186.32a.43.43,0,0,1,0,.1h-.22a1,1,0,0,0,0-.1Z" transform="translate(-69 -186.32)"/><path class="cls-12" d="M340.5,186.42a.33.33,0,0,1,0-.1h.22s0,0,0,.06,0,0,0,0Z" transform="translate(-69 -186.32)"/><path class="cls-13" d="M340.72,186.42a.55.55,0,0,1,0-.1h.22s0,.07,0,.1Z" transform="translate(-69 -186.32)"/><path class="cls-14" d="M344.81,250.64h.09v.22h-.09Z" transform="translate(-69 -186.32)"/><path class="cls-15" d="M279.92,255.28s0,.07,0,.1h-.22s0-.07,0-.1Z" transform="translate(-69 -186.32)"/><path class="cls-3" d="M256.13,216.57a1.58,1.58,0,0,0,.09-.72q0-9.43,0-18.86c0-.11,0-.22,0-.33,0-.46,0-.46.44-.47h9c.25,0,.39.07.36.34s0,.26,0,.39q0,23.9,0,47.81c0,.84.08.72-.75.72H257.6a3.85,3.85,0,0,0-.39,0c-.27,0-.34-.1-.34-.36,0-1,0-2,0-3v-.4c-.12-.07-.18,0-.23,0a12.12,12.12,0,0,1-6.38,3.6,19,19,0,0,1-7.66.36,14.34,14.34,0,0,1-10.68-7.7,17.3,17.3,0,0,1-1.9-6.4,19.94,19.94,0,0,1,.7-8.23,15.2,15.2,0,0,1,8.95-10,14.77,14.77,0,0,1,5.59-1.1,16.31,16.31,0,0,1,6.52,1.13,11,11,0,0,1,4.1,2.9C256,216.32,256,216.42,256.13,216.57Z" transform="translate(-69 -186.32)"/><path class="cls-3" d="M170.85,225.63a1.12,1.12,0,0,0,.46-.41l10.75-12.28a.84.84,0,0,1,.69-.35c3.57,0,7.13,0,10.7,0h.26c0,.21-.12.29-.21.39l-12.37,14a2,2,0,0,1-.18.2c-.21.18-.2.34,0,.55.58.71,1.13,1.45,1.7,2.17l11.59,14.94.34.45c-.16.17-.36.09-.52.09-3.49,0-7,0-10.48,0a.94.94,0,0,1-.86-.43Q177,237.3,171.28,229.6c-.11-.14-.17-.32-.43-.43v.61q0,7.5,0,15c0,.77.06.67-.68.67h-8.88c-.22,0-.29-.1-.28-.3s0-.22,0-.33q0-24,0-48c0-.07,0-.15,0-.22,0-.41,0-.42.44-.42h9c.41,0,.41,0,.42.44,0,.77,0,1.54,0,2.32q0,13,0,26Z" transform="translate(-69 -186.32)"/><path class="cls-3" d="M130.89,217.3c.11-.05.15-.06.17-.08a10.54,10.54,0,0,1,5.26-4,14.18,14.18,0,0,1,4.78-1,17.49,17.49,0,0,1,5.14.5,9.82,9.82,0,0,1,7,6.47,18.87,18.87,0,0,1,1,4.62,44.94,44.94,0,0,1,.18,4.57q0,8.19,0,16.38c0,.8,0,.68-.68.68h-8.49a2.84,2.84,0,0,0-.33,0c-.3,0-.39-.11-.37-.39s0-.26,0-.39q0-7.72,0-15.44a14.71,14.71,0,0,0-.46-4,7.6,7.6,0,0,0-.87-2,4.77,4.77,0,0,0-3.59-2.3,7.39,7.39,0,0,0-3.69.43,6.37,6.37,0,0,0-3.24,2.86,10.09,10.09,0,0,0-1.2,3.92,20.23,20.23,0,0,0-.1,2.31q0,7.14,0,14.28a3.52,3.52,0,0,0,0,.39c0,.3-.11.37-.38.37h-9c-.4,0-.4,0-.41-.39,0-.11,0-.22,0-.33q0-15.69,0-31.38c0-.87-.12-.74.77-.74h8.11c.38,0,.39,0,.39.4,0,1.23,0,2.46,0,3.7Z" transform="translate(-69 -186.32)"/><path class="cls-3" d="M219.44,235.19l1.83,1.48,3.9,3.16c.4.33.49.23.05.74a13.5,13.5,0,0,1-5,3.56,21.35,21.35,0,0,1-6.29,1.56,26.59,26.59,0,0,1-4.9.1,16,16,0,0,1-10.43-4.55,15.44,15.44,0,0,1-4-7.24,21.14,21.14,0,0,1-.14-10.42,13.77,13.77,0,0,1,9.6-10.32,20.92,20.92,0,0,1,11.1-.61,13.47,13.47,0,0,1,10.32,9.2,23,23,0,0,1,1.19,9.12c-.06,1-.08,1-1.08,1H203.81c-.73,0-.67-.12-.64.69a5.13,5.13,0,0,0,.43,1.65,7.15,7.15,0,0,0,5.69,4.82,10.53,10.53,0,0,0,8.17-2A10.1,10.1,0,0,0,219.44,235.19Z" transform="translate(-69 -186.32)"/><path class="cls-3" d="M105.2,229q0-7.8,0-15.61c0-.11,0-.22,0-.33,0-.48,0-.48.48-.48h8.82c.53,0,.54,0,.54.54q0,7.28,0,14.56v16.93c0,.11,0,.22,0,.33,0,.48,0,.48-.49.48h-8.82c-.57,0-.53,0-.53-.54Q105.2,237,105.2,229Z" transform="translate(-69 -186.32)"/><path class="cls-3" d="M104.37,201.14a5.91,5.91,0,0,1,11.82,0,5.91,5.91,0,1,1-11.82,0Z" transform="translate(-69 -186.32)"/><path class="cls-4" d="M311.59,217.29a8.52,8.52,0,0,1,2.19-2.37,13.34,13.34,0,0,1,6.15-2.53,18.14,18.14,0,0,1,7.49.42,9.18,9.18,0,0,1,6.67,6.64,22.45,22.45,0,0,1,.86,5.32c.05.94.06,1.87.06,2.81q0,8.58,0,17.15c0,.06,0,.11,0,.17,0,.54,0,.54-.54.54h-9c-.18,0-.27-.07-.27-.26s0-.29,0-.44q0-7.83,0-15.66a12.62,12.62,0,0,0-.67-4.33,6.5,6.5,0,0,0-1.58-2.55,4.74,4.74,0,0,0-3.12-1.35,8.7,8.7,0,0,0-2.57.22,6,6,0,0,0-4.1,3.24,10.15,10.15,0,0,0-1,3.53,21.5,21.5,0,0,0-.1,2.48q0,7.2,0,14.39c0,.15,0,.29,0,.44s-.07.31-.29.29h-9.27c-.21,0-.3-.08-.29-.29s0-.26,0-.39q0-15.75,0-31.49c0-.77-.08-.67.68-.67H311c.43,0,.43,0,.43.42,0,.9,0,1.8,0,2.7q0,.76,0,1.53Z" transform="translate(-69 -186.32)"/><path class="cls-4" d="M295.62,229q0,7.89,0,15.77c0,.75.06.66-.64.66H286c-.18,0-.28-.07-.27-.26s0-.26,0-.39q0-15.77,0-31.54c0-.73-.07-.66.64-.66h8.93c.18,0,.27.07.27.26s0,.29,0,.44Q295.62,221.16,295.62,229Z" transform="translate(-69 -186.32)"/><path class="cls-4" d="M296.85,201.09A6.15,6.15,0,1,1,290.7,195,6.15,6.15,0,0,1,296.85,201.09Z" transform="translate(-69 -186.32)"/><path class="cls-4" d="M239.15,229.07a11.17,11.17,0,0,1,1-4.92,7.78,7.78,0,0,1,5.85-4.39,10.5,10.5,0,0,1,4.59.15,7.64,7.64,0,0,1,5.61,5.12,11.29,11.29,0,0,1-.22,8.34,8,8,0,0,1-7.05,5,9.51,9.51,0,0,1-4-.41,8.06,8.06,0,0,1-5.26-5.51A11.93,11.93,0,0,1,239.15,229.07Z" transform="translate(-69 -186.32)"/><path class="cls-4" d="M203.17,225.67a7.47,7.47,0,0,1,5.67-6.69,7,7,0,0,1,3.33,0,6.53,6.53,0,0,1,4.88,5.22,6.19,6.19,0,0,1,.14,1.31c0,.18-.07.27-.26.26H203.64A.88.88,0,0,1,203.17,225.67Z" transform="translate(-69 -186.32)"/></svg>