<svg id="Layer_1" data-name="Layer 1" xmlns="http://www.w3.org/2000/svg" viewBox="0 0 237.68 59.3"><defs><style>.cls-1{fill:#0a66c2;}</style></defs><title>linkedin</title><path class="cls-1" d="M90.93,188.64h7.94c.57,0,.57,0,.57.59,0,.13,0,.25,0,.38v32.94c.29,0,.54,0,.79,0h15.45c.22,0,.43,0,.64,0,.1.42.12,7.78,0,8.28l-.64,0H91.59l-.66,0Z" transform="translate(-90.93 -180.12)"/><path class="cls-1" d="M328.59,209.7c0,8.43,0,16.86,0,25.29a3.88,3.88,0,0,1-1.48,3.14,5.2,5.2,0,0,1-3.35,1.28H273.44a6.14,6.14,0,0,1-1.18-.07,3.33,3.33,0,0,1-2.64-2.4,6.81,6.81,0,0,1-.28-1.68c0-.77,0-1.55,0-2.33q0-24.22,0-48.43a4.16,4.16,0,0,1,2.28-3.84,4.53,4.53,0,0,1,2.09-.55h50.52a4.31,4.31,0,0,1,2.64.79,3.94,3.94,0,0,1,1.73,3.32Q328.59,197,328.59,209.7ZM311.69,231c.24,0,.44,0,.64,0H320a.27.27,0,0,0,.29-.3c0-.13,0-.25,0-.38,0-1.65,0-3.3,0-4.94,0-4.15,0-8.3-.09-12.45a15.82,15.82,0,0,0-.76-4.53,8,8,0,0,0-5.81-5.67,16.46,16.46,0,0,0-4.66-.5,12.5,12.5,0,0,0-5.23,1.22,8.83,8.83,0,0,0-3.67,3s-.05,0-.1,0c0-.63,0-1.26,0-1.9s0-1.29,0-2c-.27,0-.47,0-.67,0h-7.13a.27.27,0,0,0-.3.29c0,.19,0,.38,0,.57q0,13.33,0,26.66c0,.13,0,.25,0,.38,0,.5,0,.53.55.53h7.56c.15,0,.3,0,.49,0,0-.26,0-.48,0-.7q0-3.56,0-7.13,0-3,0-6a10.15,10.15,0,0,1,.68-3.9A5.21,5.21,0,0,1,305,210a7.59,7.59,0,0,1,2.08-.15,4,4,0,0,1,2.71,1.2,5.67,5.67,0,0,1,1.31,2.18,11.06,11.06,0,0,1,.56,3.69q0,6.72,0,13.45C311.66,230.59,311.68,230.79,311.69,231Zm-33.95,0c.23,0,.43,0,.63,0h7.27c.67,0,.67,0,.67-.69q0-13.52,0-27,0-.21,0-.43a.26.26,0,0,0-.27-.27h-7.79a4.3,4.3,0,0,0-.51.06ZM282,198.17a5.37,5.37,0,1,0-5.34-5.39A5.38,5.38,0,0,0,282,198.17Z" transform="translate(-90.93 -180.12)"/><path class="cls-1" d="M260.69,188.67v42.16c-.35.11-6.92.15-7.7,0a4.77,4.77,0,0,1,0-.48c0-.74,0-1.49,0-2.23,0-.18,0-.36-.06-.63a4,4,0,0,0-.36.29,10.79,10.79,0,0,1-5.87,3.1,18.41,18.41,0,0,1-3.58.37,12.7,12.7,0,0,1-12.71-9.4,17.93,17.93,0,0,1-.59-6.82,14.66,14.66,0,0,1,2.12-6.48,12.52,12.52,0,0,1,9-6,13.81,13.81,0,0,1,7.78.89,9.34,9.34,0,0,1,3.26,2.34c.09.1.2.19.34.33a1.82,1.82,0,0,0,.11-.34c0-.17,0-.35,0-.52q0-8,0-15.92c0-.73,0-.73.73-.73H260C260.24,188.63,260.44,188.65,260.69,188.67Zm-15.51,20c-.47,0-.95.06-1.42.13a6.71,6.71,0,0,0-5.58,4.38,9.72,9.72,0,0,0,.14,7.63,6.72,6.72,0,0,0,4.3,3.89A8.35,8.35,0,0,0,246,225a6.94,6.94,0,0,0,6.08-4.22,9.76,9.76,0,0,0,.17-7.68,6.53,6.53,0,0,0-4-3.93A8.77,8.77,0,0,0,245.18,208.63Z" transform="translate(-90.93 -180.12)"/><path class="cls-1" d="M178.66,216.94v13.88c-.38.12-7.56.16-8.29.05a2.88,2.88,0,0,1-.06-.34c0-.16,0-.32,0-.48q0-20.27,0-40.54c0-1-.07-.89.91-.89H178l.66,0c0,.23,0,.43,0,.63q0,5.58,0,11.17,0,6.46,0,12.93V214c.29,0,.37-.21.49-.34l3.54-4c1.85-2.11,3.7-4.22,5.53-6.34a1.29,1.29,0,0,1,1.09-.51c2.8,0,5.61,0,8.41,0h.54c0,.22-.12.3-.22.41l-8.43,9.55-2.14,2.42c-.34.38-.34.38,0,.78l9.7,12.51,1.9,2.45a2.9,2.9,0,0,1-.34,0c-3,0-6.05,0-9.08,0a.78.78,0,0,1-.69-.39l-7.57-10.24-2.23-3c-.1-.13-.21-.26-.32-.39Z" transform="translate(-90.93 -180.12)"/><path class="cls-1" d="M164.49,230.9h-8.3c0-.23,0-.45,0-.66q0-6.58,0-13.17a11.6,11.6,0,0,0-.46-3.66,7.92,7.92,0,0,0-.76-1.68,4.19,4.19,0,0,0-3.57-2,6.59,6.59,0,0,0-2.21.25,5.71,5.71,0,0,0-3.78,3.59,9.53,9.53,0,0,0-.67,3.57q0,6.58,0,13.17c0,.19,0,.37,0,.59h-8.35c0-.17,0-.33,0-.48q0-13.57,0-27.14c0-.09,0-.19,0-.28a.23.23,0,0,1,.25-.23h7.23c.37,0,.41,0,.41.41,0,.92,0,1.84,0,2.76,0,.28,0,.56,0,.94a1.63,1.63,0,0,0,.29-.23,9.21,9.21,0,0,1,4.62-3.41,12,12,0,0,1,3.94-.78,14.34,14.34,0,0,1,5.06.63,8.36,8.36,0,0,1,5.41,5.47,15.49,15.49,0,0,1,.85,4.32q.1,1.71.1,3.42,0,7,0,14Z" transform="translate(-90.93 -180.12)"/><path class="cls-1" d="M206.5,219.36a6.15,6.15,0,0,0,.06,1,7.31,7.31,0,0,0,1.59,3.2,5.89,5.89,0,0,0,3.84,2.07,9.18,9.18,0,0,0,8.39-3.16,2.51,2.51,0,0,0,.18-.27l5.22,4.22c-.24.27-.42.5-.63.72a12.42,12.42,0,0,1-4.85,3,19.09,19.09,0,0,1-4.39,1,22.42,22.42,0,0,1-4.69.07c-5.87-.6-10.28-4-11.94-9.79a18.65,18.65,0,0,1-.63-6.54,14.61,14.61,0,0,1,1.3-5.22,11.9,11.9,0,0,1,7.33-6.34,19.35,19.35,0,0,1,6.89-.87,13.89,13.89,0,0,1,4.85,1,11.52,11.52,0,0,1,6.43,6.58,15.91,15.91,0,0,1,1.14,4.59c.09,1,.14,2,.17,3a10.88,10.88,0,0,1-.09,1.37c0,.3-.08.34-.39.35H207.21C207,219.33,206.77,219.35,206.5,219.36Zm0-5.33h12.16a2.78,2.78,0,0,0,0-.44,6.11,6.11,0,0,0-2.16-4.39,5.59,5.59,0,0,0-5.19-1.06,6.51,6.51,0,0,0-4.84,5.4A3.15,3.15,0,0,0,206.52,214Z" transform="translate(-90.93 -180.12)"/><path class="cls-1" d="M122.27,202.83c.35-.09,7.72-.11,8.19,0,.1.35.12,27.56,0,28.08h-8.16l-.06-.05a.1.1,0,0,1,0,0,2.68,2.68,0,0,1,0-.33q0-13.69,0-27.37a.89.89,0,0,1,0-.19A.31.31,0,0,1,122.27,202.83Z" transform="translate(-90.93 -180.12)"/><path class="cls-1" d="M126.48,187.78a5,5,0,1,1-5,5A5,5,0,0,1,126.48,187.78Z" transform="translate(-90.93 -180.12)"/></svg>