<svg id="Layer_1" data-name="Layer 1" xmlns="http://www.w3.org/2000/svg" viewBox="0 0 188.34 47.06"><title>linkedin-black</title><path d="M322.46,176.3a2.06,2.06,0,0,0,.32.1,3.3,3.3,0,0,1,2.8,2.72,4.41,4.41,0,0,1,0,.68q0,7.4,0,14.8c0,8.4,0,16.8,0,25.2a3.18,3.18,0,0,1-1.38,2.69,4.41,4.41,0,0,1-2.74.88h-39.7a4.25,4.25,0,0,1-1-.11,2.63,2.63,0,0,1-1.81-1.51,4.2,4.2,0,0,1-.37-1.56c0-.09,0-.18,0-.26q0-20,0-40.07a3.27,3.27,0,0,1,1.91-3.09,6.68,6.68,0,0,1,1.1-.35l.28-.1ZM319,216.69c0-.2,0-.35,0-.49,0-1.15,0-2.31,0-3.46,0-3.45,0-6.9-.08-10.35a12.32,12.32,0,0,0-.61-3.59,6.24,6.24,0,0,0-4.16-4.32,12.1,12.1,0,0,0-4.79-.5,9.92,9.92,0,0,0-3.29.85,7.1,7.1,0,0,0-3.06,2.42s-.05,0-.12.07v-1c0-.34,0-.68,0-1a3.91,3.91,0,0,0,0-1h-6.36c0,.22,0,.42,0,.62q0,10.6,0,21.2c0,.11,0,.23,0,.34a2.91,2.91,0,0,0,.06.3h6.75c0-.2,0-.39,0-.57q0-4.88,0-9.75c0-.46,0-.93,0-1.39a7,7,0,0,1,.61-2.55,4.09,4.09,0,0,1,2.93-2.38,6,6,0,0,1,1.53-.14,3.25,3.25,0,0,1,2.27,1,4.42,4.42,0,0,1,1,1.72,8.82,8.82,0,0,1,.45,3q0,5.33,0,10.66c0,.16,0,.32,0,.49Zm-26.91,0c0-.22,0-.41,0-.61q0-10.32,0-20.63c0-.29,0-.58,0-.87a3.42,3.42,0,0,0-.05-.38h-6.71c-.1.46-.08,22.18,0,22.48Zm-3.4-26a4.25,4.25,0,1,0-4.25-4.27A4.22,4.22,0,0,0,288.68,190.64Z" transform="translate(-137.27 -176.3)"/><path d="M137.27,183.08H144a3.1,3.1,0,0,1,.05.31c0,.12,0,.25,0,.38q0,12.81,0,25.61V210c.2,0,.37,0,.54,0h12.82c.09.33.1,6.15,0,6.58l-.54,0H137.27Z" transform="translate(-137.27 -176.3)"/><path d="M265.16,196.94c0-.2,0-.37,0-.54q0-5.24,0-10.47c0-.78,0-1.56,0-2.34,0-.15,0-.29,0-.43.31-.09,6.11-.1,6.52,0,.08.27.1,32.89,0,33.39-.26.09-5.5.13-6.08,0a3.64,3.64,0,0,1,0-.38c0-.59,0-1.18,0-1.77,0-.13,0-.27,0-.47a2.16,2.16,0,0,0-.27.2,8.75,8.75,0,0,1-5,2.54,13.46,13.46,0,0,1-3.52.2,9.78,9.78,0,0,1-7.43-4.09,11.19,11.19,0,0,1-2-5.13,13.89,13.89,0,0,1,.31-5.75,10.47,10.47,0,0,1,5.12-6.64,9.72,9.72,0,0,1,3.78-1.17,11.7,11.7,0,0,1,5,.51,7.59,7.59,0,0,1,3.24,2.11l.19.18Zm.48,7.91a15,15,0,0,0-.28-1.61,5.36,5.36,0,0,0-3.88-4,7.07,7.07,0,0,0-2.9-.21,5.35,5.35,0,0,0-4.53,3.32,7.65,7.65,0,0,0,0,6.22,5.3,5.3,0,0,0,3.76,3.18,6.85,6.85,0,0,0,2.54.15,5.6,5.6,0,0,0,3.89-2.12A7.46,7.46,0,0,0,265.64,204.86Z" transform="translate(-137.27 -176.3)"/><path d="M206.9,203.19l.32-.35q3.57-4.08,7.14-8.17a1,1,0,0,1,.83-.38c2.23,0,4.47,0,6.7,0h.4l0,.08-.28.33L215.65,202l-1.87,2.12c-.28.32-.28.32,0,.65l8,10.27,1,1.34a2.31,2.31,0,0,1,.13.22,2.25,2.25,0,0,1-.28,0h-7.16a.62.62,0,0,1-.54-.32l-7.7-10.42a1.72,1.72,0,0,0-.36-.38,16.48,16.48,0,0,0-.06,1.84c0,.62,0,1.23,0,1.85v7.37a2.88,2.88,0,0,1-.35,0h-5.88c-.36,0-.38,0-.39-.38,0-.06,0-.13,0-.19q0-16.18,0-32.36c0-.17,0-.34,0-.51.31-.09,6.1-.11,6.57,0,0,.83,0,1.66,0,2.5s0,1.66,0,2.49v15Z" transform="translate(-137.27 -176.3)"/><path d="M179.89,216.58h-6.58a1.84,1.84,0,0,1-.06-.25,2.88,2.88,0,0,1,0-.3q0-10.58,0-21.16c0-.17,0-.34,0-.54h6.21c0,.37,0,.71,0,1.06s0,.68,0,1v1.11c.12-.08.19-.1.22-.15a7.65,7.65,0,0,1,4.37-2.95,10.91,10.91,0,0,1,4.28-.33,9.82,9.82,0,0,1,2.06.41,6.62,6.62,0,0,1,4.35,4.31,12,12,0,0,1,.69,3.46c.05,1,.08,2,.08,2.93,0,3.62,0,7.23,0,10.85v.47c-.3.11-6,.14-6.57,0,0-.16,0-.33,0-.5q0-5.2,0-10.39a10.89,10.89,0,0,0-.29-2.69,5.07,5.07,0,0,0-.73-1.68,3.37,3.37,0,0,0-2.4-1.45,5,5,0,0,0-2.23.2,4.33,4.33,0,0,0-2.59,2.17,7.05,7.05,0,0,0-.83,3.4c0,2.77,0,5.55,0,8.32q0,1.11,0,2.22C179.89,216.28,179.89,216.4,179.89,216.58Z" transform="translate(-137.27 -176.3)"/><path d="M228.88,207.44a3.64,3.64,0,0,0,0,.76,5.47,5.47,0,0,0,2.31,3.49,5,5,0,0,0,2.59.8,7.4,7.4,0,0,0,5.32-1.8c.16-.14.31-.29.46-.44s.29-.31.46-.51l4.09,3.31c-.13.17-.24.31-.35.43a9.62,9.62,0,0,1-3.79,2.45,15.42,15.42,0,0,1-3.43.82,17.82,17.82,0,0,1-3.31.13A10.48,10.48,0,0,1,223,208.4a15.12,15.12,0,0,1-.3-4.94,10.59,10.59,0,0,1,2-5.37,9.73,9.73,0,0,1,5.08-3.46,11.61,11.61,0,0,1,2.87-.54,23.73,23.73,0,0,1,2.56-.05,9.74,9.74,0,0,1,6.69,2.86,10.34,10.34,0,0,1,2.53,4.68,17,17,0,0,1,.52,4.73c0,.28,0,.55-.07.82a.26.26,0,0,1-.29.27H229.47Zm0-4.2.56,0h8.92a.21.21,0,0,0,.22-.24c0-.17,0-.35-.05-.52a4.5,4.5,0,0,0-5.75-3.93,5,5,0,0,0-3.79,4C228.89,202.74,228.88,203,228.84,203.24Z" transform="translate(-137.27 -176.3)"/><path d="M168.64,194.32v22.21c-.32.09-6.13.1-6.56,0,0-.17,0-.35,0-.53q0-8.08,0-16.15,0-2.52,0-5c0-.51,0-.51.49-.51h5.65Z" transform="translate(-137.27 -176.3)"/><path d="M165.44,190.37a4,4,0,0,1-4-4,4,4,0,1,1,8,.06A4,4,0,0,1,165.44,190.37Z" transform="translate(-137.27 -176.3)"/></svg>